{"asset":{"version":"2.0","generator":"babylon.js glTF exporter for 3dsmax 2018 v20200813.4"},"scene":0,"scenes":[{"nodes":[0,1]}],"nodes":[{"mesh":0,"translation":[0.0,0.0,1.75503578E-06],"name":"Lacrosse"},{"name":"Default light"}],"meshes":[{"primitives":[{"attributes":{"POSITION":1,"NORMAL":2,"TEXCOORD_0":3},"indices":0,"material":0}],"name":"Lacrosse"}],"accessors":[{"bufferView":0,"componentType":5123,"count":1350,"type":"SCALAR","name":"accessorIndices"},{"bufferView":1,"componentType":5126,"count":1350,"max":[22.5453033,8.0,2.00086617],"min":[-22.5500011,0.299996972,-2.00086975],"type":"VEC3","name":"accessorPositions"},{"bufferView":1,"byteOffset":16200,"componentType":5126,"count":1350,"type":"VEC3","name":"accessorNormals"},{"bufferView":2,"componentType":5126,"count":1350,"type":"VEC2","name":"accessorUVs"}],"bufferViews":[{"buffer":0,"byteLength":2700,"name":"bufferViewScalar"},{"buffer":0,"byteOffset":2700,"byteLength":32400,"byteStride":12,"name":"bufferViewFloatVec3"},{"buffer":0,"byteOffset":35100,"byteLength":10800,"byteStride":8,"name":"bufferViewFloatVec2"}],"buffers":[{"uri":"Stellite.bin","byteLength":45900}],"materials":[{"pbrMetallicRoughness":{"baseColorTexture":{"index":0},"metallicFactor":0.0,"roughnessFactor":0.450053632},"doubleSided":true,"name":"Material #43"}],"textures":[{"sampler":0,"source":0,"name":"satellite.jpg"}],"images":[{"uri":"./satellite.jpg"}],"samplers":[{"magFilter":9729,"minFilter":9987}]}